name Walk9.mot
datacolumns 19
datarows 20
range 3.57000000 3.66500000
endheader

                time	   L_ground_force_vx	   L_ground_force_vy	   L_ground_force_vz	   L_ground_force_px	   L_ground_force_py	   L_ground_force_pz	   R_ground_force_vx	   R_ground_force_vy	   R_ground_force_vz	   R_ground_force_px	   R_ground_force_py	   R_ground_force_pz	   L_ground_torque_x	   L_ground_torque_y	   L_ground_torque_z	   R_ground_torque_x	   R_ground_torque_y	   R_ground_torque_z	
          3.57000000	         20.13607697	        742.53758665	         37.95184963	         -0.13621170	          0.00000000	         -0.04965955	         -0.01243314	          0.23972435	          0.00200681	          0.00037928	          0.00000000	          0.00010372	          0.00000000	          1.40609251	          0.00000000	          0.00000000	          0.00230268	          0.00000000	
          3.57500000	         24.14720437	        751.99449589	         38.96510608	         -0.13503516	          0.00000000	         -0.04987171	         -0.02035870	          0.30715304	          0.00279170	          0.00045099	          0.00000000	          0.00012265	          0.00000000	          1.38087322	          0.00000000	          0.00000000	          0.00372938	          0.00000000	
          3.58000000	         28.37703255	        761.65745110	         39.91822445	         -0.13398201	          0.00000000	         -0.05005258	         -0.03020685	          0.37441938	          0.00367136	          0.00050718	          0.00000000	          0.00013703	          0.00000000	          1.35142896	          0.00000000	          0.00000000	          0.00549421	          0.00000000	
          3.58500000	         32.80753568	        771.48717132	         40.78780049	         -0.13304398	          0.00000000	         -0.05020064	         -0.04183851	          0.43313671	          0.00459030	          0.00053226	          0.00000000	          0.00014256	          0.00000000	          1.31607867	          0.00000000	          0.00000000	          0.00756866	          0.00000000	
          3.59000000	         37.42412161	        781.44153121	         41.55690699	         -0.13221078	          0.00000000	         -0.05031640	         -0.05481682	          0.47128141	          0.00545715	          0.00050573	          0.00000000	          0.00013359	          0.00000000	          1.27348740	          0.00000000	          0.00000000	          0.00987008	          0.00000000	
          3.59500000	         42.21417925	        791.46957962	         42.21641428	         -0.13147089	          0.00000000	         -0.05040218	         -0.06829447	          0.47264125	          0.00613589	          0.00040198	          0.00000000	          0.00010315	          0.00000000	          1.22276117	          0.00000000	          0.00000000	          0.01224162	          0.00000000	
          3.60000000	         47.16407470	        801.51070768	         42.76495624	         -0.13081125	          0.00000000	         -0.05046049	         -0.08088863	          0.41647182	          0.00643758	          0.00019063	          0.00000000	          0.00004294	          0.00000000	          1.16383027	          0.00000000	          0.00000000	          0.01443002	          0.00000000	
          3.60500000	         52.25676270	        811.49129578	         43.20715987	         -0.13021838	          0.00000000	         -0.05049416	         -0.09055187	          0.27751968	          0.00611408	         -0.00016247	          0.00000000	         -0.00005623	          0.00000000	          1.09745306	          0.00000000	          0.00000000	          0.01606293	          0.00000000	
          3.61000000	         57.47221284	        821.32172009	         43.55168051	         -0.12967895	          0.00000000	         -0.05050683	         -0.09445294	          0.02661456	          0.00485560	         -0.00069304	          0.00000000	         -0.00020395	          0.00000000	          1.02574732	          0.00000000	          0.00000000	          0.01662825	          0.00000000	
          3.61500000	         62.78816092	        830.89209264	         43.80959072	         -0.12917938	          0.00000000	         -0.05050261	         -0.08888749	         -0.36792411	          0.00229431	         -0.00143493	          0.00000000	         -0.00040914	          0.00000000	          0.95138655	          0.00000000	          0.00000000	          0.01545907	          0.00000000	
          3.62000000	         68.18112585	        840.07890926	         43.99498026	         -0.12870751	          0.00000000	         -0.05048592	         -0.06924651	         -0.93778434	         -0.00198267	         -0.00241486	          0.00000000	         -0.00067865	          0.00000000	          0.87721139	          0.00000000	          0.00000000	          0.01172933	          0.00000000	
          3.62500000	         73.62882864	        848.75518074	         44.12466483	         -0.12825268	          0.00000000	         -0.05045911	         -0.03007873	         -1.71075768	         -0.00840758	         -0.00364511	          0.00000000	         -0.00101523	          0.00000000	          0.80612120	          0.00000000	          0.00000000	          0.00446670	          0.00000000	
          3.63000000	         79.11015600	        856.79507605	         44.21792323	         -0.12780597	          0.00000000	         -0.05042311	          0.03470827	         -2.70513216	         -0.01738957	         -0.00511400	          0.00000000	         -0.00141488	          0.00000000	          0.74081293	          0.00000000	          0.00000000	         -0.00740937	          0.00000000	
          3.63500000	         84.60450106	        864.07985634	         44.29650088	         -0.12736012	          0.00000000	         -0.05037921	          0.13145529	         -3.92212079	         -0.02925127	         -0.00677385	          0.00000000	         -0.00186359	          0.00000000	          0.68387562	          0.00000000	          0.00000000	         -0.02501488	          0.00000000	
          3.64000000	         90.09022368	        870.50036780	         44.38319219	         -0.12690910	          0.00000000	         -0.05033018	          0.26610851	         -5.33616054	         -0.04414067	         -0.00852679	          0.00000000	         -0.00233346	          0.00000000	          0.63736702	          0.00000000	          0.00000000	         -0.04938353	          0.00000000	
          3.64500000	         95.54455562	        875.95689946	         44.50112377	         -0.12644718	          0.00000000	         -0.05027973	          0.44326535	         -6.88308700	         -0.06191511	         -0.01020870	          0.00000000	         -0.00277839	          0.00000000	          0.60324770	          0.00000000	          0.00000000	         -0.08129312	          0.00000000	
          3.65000000	        100.94707813	        880.35792300	         44.67213127	         -0.12596847	          0.00000000	         -0.05023065	          0.66485307	         -8.44645484	         -0.08199634	         -0.01157240	          0.00000000	         -0.00312955	          0.00000000	          0.58289708	          0.00000000	          0.00000000	         -0.12102657	          0.00000000	
          3.65500000	        106.27995691	        883.62118560	         44.91443378	         -0.12546877	          0.00000000	         -0.05018534	          0.92839741	         -9.84265386	         -0.10319816	         -0.01227174	          0.00000000	         -0.00329118	          0.00000000	          0.57714294	          0.00000000	          0.00000000	         -0.16806014	          0.00000000	
          3.66000000	        111.52812918	        885.67270650	         45.24034223	         -0.12494563	          0.00000000	         -0.05014550	          1.22486564	        -10.80598268	         -0.12353261	         -0.01184882	          0.00000000	         -0.00313733	          0.00000000	          0.58699283	          0.00000000	          0.00000000	         -0.22067679	          0.00000000	
          3.66500000	        116.67941750	        886.44087602	         45.65308803	         -0.12439724	          0.00000000	         -0.05011172	          1.53611185	        -10.97549699	         -0.14000669	         -0.00972803	          0.00000000	         -0.00251049	          0.00000000	          0.61271826	          0.00000000	          0.00000000	         -0.27551048	          0.00000000	
